<svg aria-hidden="true" style="position:absolute;width:0;height:0" xmlns="http://www.w3.org/2000/svg" overflow="hidden"><defs>
<symbol id="checkbox" viewBox="0 0 33 32"><path d="M25.352 2.319V18.55H8.039V2.319h17.313zm0-2.319H8.039C6.678 0 5.565 1.043 5.565 2.319V18.55c0 1.276 1.113 2.319 2.474 2.319h17.313c1.361 0 2.474-1.043 2.474-2.319V2.319C27.826 1.043 26.713 0 25.352 0z"/></symbol><symbol id="checkbox-active" viewBox="0 0 34 32"><path d="M4.267 0h25.6a4.267 4.267 0 014.267 4.267v23.467a4.267 4.267 0 01-4.267 4.267h-25.6A4.267 4.267 0 010 27.734V4.267A4.267 4.267 0 014.267 0z"/><path d="M8.442 16.538l-.147-.141-.147.139-2.057 1.95.162.156 7.605 7.253.147-.141 16.171-15.426-.162-.154-2.029-1.935-.147.141-13.98 13.325-5.417-5.167z"/></symbol>
</defs></svg>